<svg xmlns="http://www.w3.org/2000/svg" version="1.1" xmlns:xlink="http://www.w3.org/1999/xlink" xmlns:svgjs="http://svgjs.dev/svgjs" viewBox="0 0 400 400" opacity="0.26"><defs><linearGradient x1="50%" y1="0%" x2="50%" y2="100%" id="gggyrate-grad"><stop stop-color="hsl(0, 0%, 100%)" stop-opacity="1" offset="0%"></stop><stop stop-color="hsl(0, 0%, 27%)" stop-opacity="1" offset="100%"></stop></linearGradient></defs><g stroke-width="2.5" stroke="url(#gggyrate-grad)" fill="none"><path d="M352.27241377839425 -288.36019777046397C381.80622524804653 -305.4084806679426 418.1937137167972 -305.4084806679426 447.7275251864495 -288.3554250148935L972.2724533959943 14.490234193872539C1001.8062648656464 31.538517091351196 1020.000009100022 63.05302212272068 1020.000009100022 97.15436067324868V702.8456790907808C1020.000009100022 736.9470176413088 1001.8062648656464 768.4615226726783 972.2724533959943 785.5145783257271L447.7275251864495 1088.360237534493C418.1937137167972 1105.408520431972 381.80622524804653 1105.408520431972 352.27241377839425 1088.3554647789229L-172.27251443115046 785.5098055701567C-201.80632590080268 768.4615226726783 -220.00007013517808 736.9470176413088 -220.00007013517808 702.8456790907808V97.15436067324868C-220.00007013517808 63.05302212272068 -201.80632590080268 31.538517091351196 -172.27251443115046 14.485461438302309L352.27241377839425 -288.36019777046397Z " transform="rotate(40, 400, 400)" opacity="0.05"></path><path d="M353.46560267099494 -271.1512118996887C382.26106885390584 -287.7732877247304 417.7388701109379 -287.7732877247304 446.5343362938488 -271.1465584630075L957.9656412981549 24.127959265539403C986.7611074810659 40.75003509058115 1004.5000081095818 71.4766774961663 1004.5000081095818 104.72548258293114V695.274518040025C1004.5000081095818 728.5233231267896 986.7611074810659 759.2499655323747 957.9656412981549 775.8766947940976L446.5343362938488 1071.1512125226445C417.7388701109379 1087.7732883476863 382.26106885390584 1087.7732883476863 353.46560267099494 1071.1465590859634L-157.96570233331119 775.8720413574167C-186.76116851622209 759.2499655323747 -204.50006914473806 728.5233231267896 -204.50006914473806 695.274518040025V104.72548258293114C-204.50006914473806 71.4766774961663 -186.76116851622209 40.75003509058115 -157.96570233331119 24.123305828858406L353.46560267099494 -271.1512118996887Z " transform="rotate(39, 400, 400)" opacity="0.07"></path><path d="M354.6587915635956 -253.94216499375716C382.71591245976526 -270.1380337463619 417.2840265050785 -270.1380337463619 445.3411474012481 -253.93763087596523L943.6588292003157 33.76574537236252C971.7159500964851 49.961614124967355 989.0000071191419 79.9003939047683 989.0000071191419 112.29666552776985V687.7034180244254C989.0000071191419 720.0996896474271 971.7159500964851 750.0384694272279 943.6588292003157 766.2388722976245L445.3411474012481 1053.9422485459522C417.2840265050785 1070.1381172985568 382.71591245976526 1070.1381172985568 354.6587915635956 1053.9377144281605L-143.65889023547186 766.2343381798328C-171.71601113164144 750.0384694272279 -189.00006815429805 720.0996896474271 -189.00006815429805 687.7034180244254V112.29666552776985C-189.00006815429805 79.9003939047683 -171.71601113164144 49.961614124967355 -143.65889023547186 33.76121125457075L354.6587915635956 -253.94216499375716Z " transform="rotate(38, 400, 400)" opacity="0.10"></path><path d="M355.8519804561963 -236.73317912298188C383.1707560656247 -252.50284080314964 416.82918289921906 -252.50284080314964 444.14795850864743 -236.72876432407924L929.3520171024761 43.40347044402938C956.6707927119046 59.17313212419708 973.5000061287017 88.3240492782138 973.5000061287017 119.8677874374522V680.1322569736694C973.5000061287017 711.6759951329077 956.6707927119046 740.8269122869244 929.3520171024761 756.6009887659948L444.14795850864743 1036.7332235341034C416.82918289921906 1052.5028852142711 383.1707560656247 1052.5028852142711 355.8519804561963 1036.728808735201L-129.35207813763253 756.5965739670924C-156.67085374706085 740.8269122869244 -173.50006716385803 711.6759951329077 -173.50006716385803 680.1322569736694V119.8677874374522C-173.50006716385803 88.3240492782138 -156.67085374706085 59.17313212419708 -129.35207813763253 43.39905564512685L355.8519804561963 -236.73317912298188Z " transform="rotate(37, 400, 400)" opacity="0.12"></path><path d="M357.045169348797 -219.5241932522066C383.625599671484 -234.86764785993742 416.37433929335975 -234.86764785993742 442.95476961604675 -219.51989777219325L915.045205004637 53.041195515696245C941.6256353273238 68.38465012342704 958.0000051382619 96.74770465165966 958.0000051382619 127.43890934713465V672.5610959229136C958.0000051382619 703.2523006183887 941.6256353273238 731.6153551466214 915.045205004637 746.9631052343652L442.95476961604675 1019.5241985222549C416.37433929335975 1034.8676531299857 383.625599671484 1034.8676531299857 357.045169348797 1019.5199030422416L-115.0452660397932 746.9588097543522C-141.6256963624802 731.6153551466214 -158.00006617341808 703.2523006183887 -158.00006617341808 672.5610959229136V127.43890934713465C-158.00006617341808 96.74770465165966 -141.6256963624802 68.38465012342704 -115.0452660397932 53.03690003568295L357.045169348797 -219.5241932522066Z " transform="rotate(36, 400, 400)" opacity="0.15"></path><path d="M358.2383582413977 -202.31516160506413C384.0804432773434 -217.232409140358 415.91949568750033 -217.232409140358 441.76158072344606 -202.31098544394L900.7383929067976 62.6789663637303C926.5804779427435 77.59621389902418 942.5000041478218 105.17140580147247 942.5000041478218 135.0100770331843V664.989980648525C942.5000041478218 694.8286518802367 926.5804779427435 722.4038437826853 900.7383929067976 737.3252674791029L441.76158072344606 1002.3152192867733C415.91949568750033 1017.232466822067 384.0804432773434 1017.232466822067 358.2383582413977 1002.3110431256493L-100.73845394195394 737.3210913179789C-126.58053897789961 722.4038437826853 -142.50006518297806 694.8286518802367 -142.50006518297806 664.989980648525V135.0100770331843C-142.50006518297806 105.17140580147247 -126.58053897789961 77.59621389902418 -100.73845394195394 62.674790202606346L358.2383582413977 -202.31516160506413Z " transform="rotate(35, 400, 400)" opacity="0.17"></path><path d="M359.4315471339985 -185.1061757342889C384.53528688320284 -199.59721619714574 415.4646520816409 -199.59721619714574 440.56839183084537 -185.10211889205402L886.4315808089582 72.31669143539716C911.5353205581628 86.80773189825413 927.0000031573818 113.5950611749181 927.0000031573818 142.58119894286688V657.418819597769C927.0000031573818 686.404957365718 911.5353205581628 713.192286642382 886.4315808089582 727.6873839474736L440.56839183084537 985.1061942749247C415.4646520816409 999.5972347377817 384.53528688320284 999.5972347377817 359.4315471339985 985.1021374326901L-86.43164184411461 727.6833271052387C-111.53538159331902 713.192286642382 -127.00006419253805 686.404957365718 -127.00006419253805 657.418819597769V142.58119894286688C-127.00006419253805 113.5950611749181 -111.53538159331902 86.80773189825413 -86.43164184411461 72.31263459316244L359.4315471339985 -185.1061757342889Z " transform="rotate(34, 400, 400)" opacity="0.20"></path><path d="M360.62473602659907 -167.89718986351363C384.99013048906227 -181.96202325393352 415.0098084757815 -181.96202325393352 439.3752029382447 -167.89325234016803L872.124768711119 81.95441650706402C896.490163173582 96.01924989748386 911.5000021669418 122.01871654836373 911.5000021669418 150.15232085254922V649.8476585470135C911.5000021669418 677.9812628511986 896.490163173582 703.9807295020787 872.124768711119 718.049500415844L439.3752029382447 967.897169263076C415.0098084757815 981.9620026534958 384.99013048906227 981.9620026534958 360.62473602659907 967.8932317397305L-72.12482974627528 718.0455628924983C-96.49022420873837 703.9807295020787 -111.50006320209809 677.9812628511986 -111.50006320209809 649.8476585470135V150.15232085254922C-111.50006320209809 122.01871654836373 -96.49022420873837 96.01924989748386 -72.12482974627528 81.95047898371854L360.62473602659907 -167.89718986351363Z " transform="rotate(33, 400, 400)" opacity="0.22"></path><path d="M361.81792491919987 -150.6881429575821C385.4449740949216 -164.32676927556503 414.5549648699222 -164.32676927556503 438.182014045644 -150.68432475312574L857.8179566132796 91.59220261388714C881.4450057890017 105.23082893187006 896.0000011765019 130.4424329569656 896.0000011765019 157.72350379738793V642.2765585314137C896.0000011765019 669.5576293718361 881.4450057890017 694.7692333969317 857.8179566132796 708.411677919371L438.182014045644 950.6882052863837C414.5549648699222 964.3268316043666 385.4449740949216 964.3268316043666 361.81792491919987 950.6843870819275L-57.81801764843601 708.4078597149146C-81.44506682415778 694.7692333969317 -96.00006221165808 669.5576293718361 -96.00006221165808 642.2765585314137V157.72350379738793C-96.00006221165808 130.4424329569656 -81.44506682415778 105.23082893187006 -57.81801764843601 91.58838440943094L361.81792491919987 -150.6881429575821Z " transform="rotate(32, 400, 400)" opacity="0.24"></path><path d="M363.01111381180044 -133.47915708680682C385.8998177007809 -146.69157633235278 414.10012126406286 -146.69157633235278 436.9888251530433 -133.47545820123975L843.5111445154405 101.229927685554C866.3998484044209 114.4423469310999 880.5000001860617 138.86608833041123 880.5000001860617 165.29462570707028V634.7053974806579C880.5000001860617 661.133934857317 866.3998484044209 685.5576762566282 843.5111445154405 698.7737943877412L436.9888251530433 933.4791802745349C414.10012126406286 946.6915995200809 385.8998177007809 946.6915995200809 363.01111381180044 933.4754813889679L-43.511205550596685 698.7700955021742C-66.39990943957719 685.5576762566282 -80.50006122121806 661.133934857317 -80.50006122121806 634.7053974806579V165.29462570707028C-80.50006122121806 138.86608833041123 -66.39990943957719 114.4423469310999 -43.511205550596685 101.22622879998698L363.01111381180044 -133.47915708680682Z " transform="rotate(31, 400, 400)" opacity="0.27"></path><path d="M364.20430270440124 -116.27017121603154C386.3546613066403 -129.05638338914056 413.64527765820344 -129.05638338914056 435.7956362604425 -116.26659164935376L829.2043324176011 110.86765275722087C851.3546910198402 123.65386493032986 864.999999195622 147.28974370385686 864.999999195622 172.86574761675286V627.134236429902C864.999999195622 652.710240342798 851.3546910198402 676.3461191163251 829.2043324176011 689.1359108561119L435.7956362604425 916.2701552626863C413.64527765820344 929.0563674357954 386.3546613066403 929.0563674357954 364.20430270440124 916.2665756960087L-29.20439345275736 689.1323312894342C-51.35475205499654 676.3461191163251 -65.00006023077805 652.710240342798 -65.00006023077805 627.134236429902V172.86574761675286C-65.00006023077805 147.28974370385686 -51.35475205499654 123.65386493032986 -29.20439345275736 110.86407319054314L364.20430270440124 -116.27017121603154Z " transform="rotate(30, 400, 400)" opacity="0.29"></path><path d="M365.3974915970018 -99.06112431010001C386.80950491249973 -111.42112941077207 413.190434052344 -111.42112941077207 434.60244736784193 -99.05766406231146L814.897520319762 120.50543886404398C836.3095336352596 132.86544396471595 849.4999982051818 155.71346011245885 849.4999982051818 180.43693056159157V619.5631364143023C849.4999982051818 644.286606863435 836.3095336352596 667.1346230111781 814.897520319762 679.4980883596384L434.60244736784193 899.0611912859938C413.190434052344 911.4211963866658 386.80950491249973 911.4211963866658 365.3974915970018 899.0577310382055L-14.897581354918088 679.49462811185C-36.30959467041595 667.1346230111781 -49.50005924033809 644.286606863435 -49.50005924033809 619.5631364143023V180.43693056159157C-49.50005924033809 155.71346011245885 -36.30959467041595 132.86544396471595 -14.897581354918088 120.50197861625554L365.3974915970018 -99.06112431010001Z " transform="rotate(29, 400, 400)" opacity="0.32"></path><path d="M366.5906804896026 -81.85213843932479C387.26434851835916 -93.78593646755982 412.7355904464846 -93.78593646755982 433.40925847524113 -81.84879751042547L800.5907082219223 130.1431639357108C821.2643762506791 142.0769619639459 833.9999972147418 164.13711548590447 833.9999972147418 188.0080524712739V611.9919753635464C833.9999972147418 635.8629123489161 821.2643762506791 657.9230658708747 800.5907082219223 669.8602048280089L433.40925847524113 881.852166274145C412.7355904464846 893.7859643023803 387.26434851835916 893.7859643023803 366.5906804896026 881.848825345246L-0.5907692570787617 669.8568638991097C-21.2644372858353 657.9230658708747 -34.000058249898075 635.8629123489161 -34.000058249898075 611.9919753635464V188.0080524712739C-34.000058249898075 164.13711548590447 -21.2644372858353 142.0769619639459 -0.5907692570787617 130.13982300681158L366.5906804896026 -81.85213843932479Z " transform="rotate(28, 400, 400)" opacity="0.34"></path><path d="M367.7838693822032 -64.64315256854951C387.71919212421847 -76.1507435243476 412.2807468406253 -76.1507435243476 432.21606958264056 -64.63993095853948L786.2838961240832 139.78088900737765C806.2192188660983 151.28847996317575 818.4999962243019 172.5607708593501 818.4999962243019 195.57917438095637V604.4208143127906C818.4999962243019 627.439217834397 806.2192188660983 648.7115087305714 786.2838961240832 660.2223212963795L432.21606958264056 864.6431412622965C412.2807468406253 876.1507322180946 387.71919212421847 876.1507322180946 367.7838693822032 864.6399196522866L13.716042840760565 660.2190996863694C-6.219279901254708 648.7115087305714 -18.50005725945806 627.439217834397 -18.50005725945806 604.4208143127906V195.57917438095637C-18.50005725945806 172.5607708593501 -6.219279901254708 151.28847996317575 13.716042840760565 139.77766739736774L367.7838693822032 -64.64315256854951Z " transform="rotate(27, 400, 400)" opacity="0.37"></path><path d="M368.977058274804 -47.43410566261798C388.1740357300779 -58.51548954597911 411.82590323476586 -58.51548954597911 431.02288069003976 -47.431003371497184L771.977084026244 149.41867511420077C791.174061481518 160.5000589975619 802.9999952338619 180.9844872679521 802.9999952338619 203.15035732579514V596.849714297191C802.9999952338619 619.0155843550342 791.174061481518 639.5000126254243 771.977084026244 650.5844987999061L431.02288069003976 847.4341772856042C411.82590323476586 858.5155611689652 388.1740357300779 858.5155611689652 368.977058274804 847.4310749944834L28.022854938599835 650.5813965087855C8.82587748332594 639.5000126254243 -3.0000562690181027 619.0155843550342 -3.0000562690181027 596.849714297191V203.15035732579514C-3.0000562690181027 180.9844872679521 8.82587748332594 160.5000589975619 28.022854938599835 149.41557282308008L368.977058274804 -47.43410566261798Z " transform="rotate(26, 400, 400)" opacity="0.39"></path><path d="M370.17024716740457 -30.2251197918427C388.6288793359373 -40.88029660276686 411.37105962890644 -40.88029660276686 429.8296917974392 -30.222136819611194L757.6702719284046 159.05640018586763C776.1289040969373 169.7115769967918 787.499994243422 189.40814264139772 787.499994243422 210.72147923547766V589.2785532464353C787.499994243422 610.5918898405153 776.1289040969373 630.2884554851211 757.6702719284046 640.9466152682768L429.8296917974392 830.2251522737556C411.37105962890644 840.8803290846797 388.6288793359373 840.8803290846797 370.17024716740457 830.2221693015242L42.32966703643916 640.9436322960454C23.87103486790653 630.2884554851211 12.499944721421912 610.5918898405153 12.499944721421912 589.2785532464353V210.72147923547766C12.499944721421912 189.40814264139772 23.87103486790653 169.7115769967918 42.32966703643916 159.05341721363618L370.17024716740457 -30.2251197918427Z " transform="rotate(25, 400, 400)" opacity="0.42"></path><path d="M371.3634970951616 -13.016133921067421C389.0837839769529 -23.245103659554616 410.9162770582034 -23.245103659554616 428.63656393999463 -13.013270267725147L743.3635208657215 168.6941252575345C761.0838077475128 178.9230949960217 772.0000542881381 197.83179801484334 772.0000542881381 218.29260114516012V581.7073921956794C772.0000542881381 602.1681953259962 761.0838077475128 621.0768983448179 743.3635208657215 631.3087317366472L428.63656393999463 813.0161272619068C410.9162770582034 823.245097000394 389.0837839769529 823.245097000394 371.3634970951616 813.0132636085646L56.63654016943474 631.3058680833051C38.91625328764337 621.0768983448179 28.000006747018176 602.1681953259962 28.000006747018176 581.7073921956794V218.29260114516012C28.000006747018176 197.83179801484334 38.91625328764337 178.9230949960217 56.63654016943474 168.69126160419233L371.3634970951616 -13.016133921067421Z " transform="rotate(24, 400, 400)" opacity="0.44"></path><path d="M372.5566859877622 4.192851949707858C389.5386275828123 -5.609910716342398 410.46143345234395 -5.609910716342398 427.44337504739406 4.1955962841608425L729.0567087678822 178.33185032920136C746.0386503629322 188.1346129952516 756.5000532976981 206.25545338828903 756.5000532976981 225.86372305484258V574.1362311449236C756.5000532976981 593.7445008114772 746.0386503629322 611.8653412045146 729.0567087678822 621.6708482050178L427.44337504739406 795.807102250058C410.46143345234395 805.6098649161086 389.5386275828123 805.6098649161086 372.5566859877622 795.8043579156054L70.94335226727401 621.6681038705648C53.96141067222402 611.8653412045146 43.50000773745819 593.7445008114772 43.50000773745819 574.1362311449236V225.86372305484258C43.50000773745819 206.25545338828903 53.96141067222402 188.1346129952516 70.94335226727401 178.32910599474843L372.5566859877622 4.192851949707858Z " transform="rotate(23, 400, 400)" opacity="0.46"></path><path d="M373.749874880363 21.401898855639388C389.9934711886717 12.025343262026098 410.00658984648453 12.025343262026098 426.25018615479325 21.404523871203082L714.7498966700429 187.96963643602442C730.9934929783516 197.34619202963773 741.0000523072581 214.67916979689096 741.0000523072581 233.4349059996813V566.565131129324C741.0000523072581 585.3208673321144 730.9934929783516 602.6538450993676 714.7498966700429 612.0330257085444L426.25018615479325 778.5981382733657C410.00658984648453 787.9746938669791 389.9934711886717 787.9746938669791 373.749874880363 778.5955132578022L85.25016436511333 612.0304006929808C69.00656805680461 602.6538450993676 59.00000872789815 585.3208673321144 59.00000872789815 566.565131129324V233.4349059996813C59.00000872789815 214.67916979689096 69.00656805680461 197.34619202963773 85.25016436511333 187.96701142046078L373.749874880363 21.401898855639388Z " transform="rotate(22, 400, 400)" opacity="0.49"></path><path d="M374.94306377296357 38.61088472641461C390.44831479453103 29.660536205238344 409.5517462406252 29.660536205238344 425.0569972621927 38.61339042308913L700.4430845722036 197.60736150769128C715.948335593771 206.55771002886763 725.500051316818 223.1028251703366 725.500051316818 241.00602790936375V558.9939700785682C725.500051316818 576.8971728175953 715.948335593771 593.4422879590642 700.4430845722036 602.395142176915L425.0569972621927 761.3891132615171C409.5517462406252 770.3394617826934 390.44831479453103 770.3394617826934 374.94306377296357 761.3866075648428L99.55697646295266 602.3926364802405C84.05172544138526 593.4422879590642 74.50000971833816 576.8971728175953 74.50000971833816 558.9939700785682V241.00602790936375C74.50000971833816 223.1028251703366 84.05172544138526 206.55771002886763 99.55697646295266 197.60485581101693L374.94306377296357 38.61088472641461Z " transform="rotate(21, 400, 400)" opacity="0.51"></path><path d="M376.13625266556437 55.819901114768015C390.90315840039045 47.29575966602869 409.0969026347658 47.29575966602869 423.8638083695919 55.822287492553244L686.1362724743643 207.24511709693627C700.9031782091904 215.7692585456756 710.0000503263782 231.52651106136034 710.0000503263782 248.57718033662434V551.4228395453904C710.0000503263782 568.4735088206544 700.9031782091904 584.2307613363391 686.1362724743643 592.7572891628636L423.8638083695919 744.1801187672465C409.0969026347658 752.704260215986 390.90315840039045 752.704260215986 376.13625266556437 744.1777323894614L113.86378856079193 592.7549027850783C99.09688282596585 584.2307613363391 90.00001070877818 568.4735088206544 90.00001070877818 551.4228395453904V248.57718033662434C90.00001070877818 231.52651106136034 99.09688282596585 215.7692585456756 113.86378856079193 207.24273071915115L376.13625266556437 55.819901114768015Z " transform="rotate(20, 400, 400)" opacity="0.54"></path><path d="M377.32944155816494 73.02891750312142C391.35800200624976 64.93098312681906 408.6420590289065 64.93098312681906 422.6706194769913 73.03118456201736L671.829460376525 216.88287268618126C685.8580208246098 224.98080706248368 694.5000493359381 239.95019695238415 694.5000493359381 256.1483327638849V543.8517090122127C694.5000493359381 560.0498448237136 685.8580208246098 575.019234713614 671.829460376525 583.1194361488123L422.6706194769913 726.9711242729761C408.6420590289065 735.0690586492784 391.35800200624976 735.0690586492784 377.32944155816494 726.9688572140802L128.17060065863126 583.1171690899164C114.14204021054644 575.019234713614 105.50001169921813 560.0498448237136 105.50001169921813 543.8517090122127V256.1483327638849C105.50001169921813 239.95019695238415 114.14204021054644 224.98080706248368 128.17060065863126 216.88060562728538L377.32944155816494 73.02891750312142Z " transform="rotate(19, 400, 400)" opacity="0.56"></path><path d="M378.52263045076575 90.2379033738967C391.8128456121092 82.5661760700313 408.18721542304706 82.5661760700313 421.4774305843905 90.2400511139034L657.5226482786857 226.52059775784812C670.8128634400291 234.19232506171352 679.0000483454982 248.37385232582983 679.0000483454982 263.7194546735673V536.2805479614568C679.0000483454982 551.6261503091944 670.8128634400291 565.8076775733107 657.5226482786857 573.4815526171826L421.4774305843905 709.7620992611274C408.18721542304706 717.4338265649928 391.8128456121092 717.4338265649928 378.52263045076575 709.7599515211208L142.47741275647059 573.4794048771761C129.1871975951271 565.8076775733107 121.00001268965815 551.6261503091944 121.00001268965815 536.2805479614568V263.7194546735673C121.00001268965815 248.37385232582983 129.1871975951271 234.19232506171352 142.47741275647059 226.51845001784147L378.52263045076575 90.2379033738967Z " transform="rotate(18, 400, 400)" opacity="0.59"></path><path d="M379.71581934336643 107.4469197622501C392.2676892179686 100.20139953082165 407.73237181718764 100.20139953082165 420.28424169178993 107.44894818336752L643.2158361808463 236.1583533470931C655.7677060554486 243.4038735785216 663.5000473550581 256.7975382168536 663.5000473550581 271.29060710082797V528.709417428279C663.5000473550581 543.2024863122535 655.7677060554486 556.5961509505855 643.2158361808463 563.8436996031313L420.28424169178993 692.5531047668569C407.73237181718764 699.7986249982854 392.2676892179686 699.7986249982854 379.71581934336643 692.5510763457396L156.78422485430985 563.8416711820139C144.23235497970768 556.5961509505855 136.50001368009816 543.2024863122535 136.50001368009816 528.709417428279V271.29060710082797C136.50001368009816 256.7975382168536 144.23235497970768 243.4038735785216 156.78422485430985 236.15632492597575L379.71581934336643 107.4469197622501Z " transform="rotate(17, 400, 400)" opacity="0.61"></path><path d="M380.90899297717806 124.65590563302538C392.7225175650389 117.83659247403389 407.27751295253915 117.83659247403389 419.09103754040007 124.65781473525351L628.909008824218 245.79607841875998C640.722533412079 252.61539157775144 648.0000311058291 265.2211935902992 648.0000311058291 278.8617290105104V521.1382563775232C648.0000311058291 534.7787917977345 640.722533412079 547.3845938102822 628.909008824218 554.2058160715019L419.09103754040007 675.3440797550082C407.27751295253915 682.1633929139997 392.7225175650389 682.1633929139997 380.90899297717806 675.3421706527802L171.09102169336012 554.2039069692737C159.27749710549926 547.3845938102822 151.99999941174912 534.7787917977345 151.99999941174912 521.1382563775232V278.8617290105104C151.99999941174912 265.2211935902992 159.27749710549926 252.61539157775144 171.09102169336012 245.7941693165319L380.90899297717806 124.65590563302538Z " transform="rotate(16, 400, 400)" opacity="0.63"></path><path d="M382.1021666109897 141.86492202137873C393.1773459121092 135.47181593482426 406.8226540878908 135.47181593482426 417.8978333890103 141.86671180471768L614.6021814675896 255.43383400800496C625.6773607687091 261.82694009455946 632.5000148566 273.64487948132296 632.5000148566 286.43288143777096V513.5671258443456C632.5000148566 526.3551278007935 625.6773607687091 538.1730671875571 614.6021814675896 544.5679630574505L417.8978333890103 658.1350852607377C406.8226540878908 664.5281913472922 393.1773459121092 664.5281913472922 382.1021666109897 658.1332954773989L185.39781853241038 544.5661732741116C174.3226392312908 538.1730671875571 167.4999851434 526.3551278007935 167.4999851434 513.5671258443456V286.43288143777096C167.4999851434 273.64487948132296 174.3226392312908 261.82694009455946 185.39781853241038 255.43204422466613L382.1021666109897 141.86492202137873Z " transform="rotate(15, 400, 400)" opacity="0.66"></path><path d="M383.2953555035904 159.07393840973214C393.63218951796864 153.1070393956146 406.36781048203136 153.1070393956146 416.7046444964096 159.0756088741818L600.2953693697502 265.07158959724995C610.6322033841286 271.0384886113675 617.00001386616 282.06856537234677 617.00001386616 294.0040338650315V505.9959953111677C617.00001386616 517.9314638038526 610.6322033841286 528.9615405648319 600.2953693697502 534.930110043399L416.7046444964096 640.926090766467C406.36781048203136 646.8929897805847 393.63218951796864 646.8929897805847 383.2953555035904 640.9244203020176L199.70463063024965 534.9284395789493C189.36779661587138 528.9615405648319 182.99998613384003 517.9314638038526 182.99998613384003 505.9959953111677V294.0040338650315C182.99998613384003 282.06856537234677 189.36779661587138 271.0384886113675 199.70463063024965 265.06991913280035L383.2953555035904 159.07393840973214Z " transform="rotate(14, 400, 400)" opacity="0.68"></path><path d="M384.48854439619106 176.28292428050742C394.087033123828 170.74223233882685 405.912966876172 170.74223233882685 415.51145560380894 176.2844754260678L585.9885572719111 274.7093146689168C595.5870459995481 280.2500066105973 601.50001287572 290.49222074579245 601.50001287572 301.57515577471395V498.4248342604119C601.50001287572 509.5077692893335 595.5870459995481 519.7499834245286 585.9885572719111 525.2922265117695L415.51145560380894 623.7170657546185C405.912966876172 629.257757696299 394.087033123828 629.257757696299 384.48854439619106 623.7155146090581L214.01144272808898 525.2906753662091C204.41295400045203 519.7499834245286 198.49998712428004 509.5077692893335 198.49998712428004 498.4248342604119V301.57515577471395C198.49998712428004 290.49222074579245 204.41295400045203 280.2500066105973 214.01144272808898 274.70776352335645L384.48854439619106 176.28292428050742Z " transform="rotate(13, 400, 400)" opacity="0.71"></path><path d="M385.68173328879175 193.49194066886082C394.5418767296874 188.37745579961722 405.4581232703126 188.37745579961722 414.31826671120825 193.49337249553196L571.6817451740717 284.3470702581618C580.5418886149673 289.4615551274054 586.00001188528 298.9159066368162 586.00001188528 309.1463082019746V490.85370372723423C586.00001188528 501.0841052923927 580.5418886149673 510.5384568018035 571.6817451740717 515.6543734977181L414.31826671120825 606.508071260348C405.4581232703126 611.6225561295915 394.5418767296874 611.6225561295915 385.68173328879175 606.5066394336768L228.3182548259283 515.6529416710471C219.45811138503262 510.5384568018035 213.99998811472 501.0841052923927 213.99998811472 490.85370372723423V309.1463082019746C213.99998811472 298.9159066368162 219.45811138503262 289.4615551274054 228.3182548259283 284.34563843149067L385.68173328879175 193.49194066886082Z " transform="rotate(12, 400, 400)" opacity="0.73"></path><path d="M386.87492218139244 210.70095705721423C394.9967203355468 206.01267926040757 405.0032796644532 206.01267926040757 413.12507781860756 210.70226956499607L557.3749330762323 293.98482584740674C565.4967312303868 298.67310364421337 570.50001089484 307.33959252784 570.50001089484 316.7174606292352V483.28257319405657C570.50001089484 492.66044129545173 565.4967312303868 501.3269301790783 557.3749330762323 506.0165204836667L413.12507781860756 589.2990767660774C405.0032796644532 593.9873545628841 394.9967203355468 593.9873545628841 386.87492218139244 589.2977642582956L242.62506692376758 506.015207975885C234.50326876961327 501.3269301790783 229.49998910516 492.66044129545173 229.49998910516 483.28257319405657V316.7174606292352C229.49998910516 307.33959252784 234.50326876961327 298.67310364421337 242.62506692376758 293.9835133396249L386.87492218139244 210.70095705721423Z " transform="rotate(11, 400, 400)" opacity="0.76"></path><path d="M388.0681110739931 227.9099429279895C395.45156394140616 223.6478722036198 404.54843605859384 223.6478722036198 411.9318889260069 227.91113611688206L543.0681209783932 303.6225509190736C550.4515738458061 307.88462164344327 555.0000099044 315.76324790128564 555.0000099044 324.28858253891764V475.71141214330066C555.0000099044 484.23674678093266 550.4515738458061 492.11537303877503 543.0681209783932 496.37863695203725L411.9318889260069 572.0900517542287C404.54843605859384 576.3521224785984 395.45156394140616 576.3521224785984 388.0681110739931 572.0888585653362L256.9318790216069 496.3774437631446C249.54842615419386 492.11537303877503 244.99999009560003 484.23674678093266 244.99999009560003 475.71141214330066V324.28858253891764C244.99999009560003 315.76324790128564 249.54842615419386 307.88462164344327 256.9318790216069 303.62135773018105L388.0681110739931 227.9099429279895Z " transform="rotate(10, 400, 400)" opacity="0.78"></path><path d="M389.2612999665938 245.11895931634288C395.90640754726553 241.28309566441018 404.09359245273447 241.28309566441018 410.7387000334062 245.12003318634623L528.7613088805538 313.2603065083186C535.4064164612255 317.0961701602513 539.5000089139601 324.18693379230945 539.5000089139601 331.85973496617817V468.14028161012294C539.5000089139601 475.8130827839917 535.4064164612255 482.9038464160499 528.7613088805538 486.74078393798584L410.7387000334062 554.8810572599582C404.09359245273447 558.716920911891 395.90640754726553 558.716920911891 389.2612999665938 554.879983389955L271.23869111944623 486.73971006798257C264.59358353877445 482.9038464160499 260.49999108604004 475.8130827839917 260.49999108604004 468.14028161012294V331.85973496617817C260.49999108604004 324.18693379230945 264.59358353877445 317.0961701602513 271.23869111944623 313.25923263831527L389.2612999665938 245.11895931634288Z " transform="rotate(9, 400, 400)" opacity="0.81"></path><path d="M390.4544888591945 262.32796044590725C396.36125115312495 258.9183038664115 403.63874884687505 258.9183038664115 409.5455111408055 262.3289149970213L514.4544967827144 322.8980468387745C520.361259076645 326.30770341827025 524.00000792352 332.61060442454414 524.00000792352 339.4308721346497V460.56913581815616C524.00000792352 467.38940352826177 520.361259076645 473.69230453453565 514.4544967827144 477.1029156651455L409.5455111408055 537.6720475068987C403.63874884687505 541.0817040863944 396.36125115312495 541.0817040863944 390.4544888591945 537.6710929557846L285.54550321728556 477.1019611140314C279.6387409233551 473.69230453453565 275.99999207648 467.38940352826177 275.99999207648 460.56913581815616V339.4308721346497C275.99999207648 332.61060442454414 279.6387409233551 326.30770341827025 285.54550321728556 322.8970922876605L390.4544888591945 262.32796044590725Z " transform="rotate(8, 400, 400)" opacity="0.83"></path><path d="M391.6476777517952 279.53696920486607C396.8160947589843 276.5535196978073 403.1839052410157 276.5535196978073 408.3523222482048 279.5378044370909L500.1476846848751 332.535794798625C505.3161016920643 335.51924430568374 508.50000693308 341.03428268617336 508.50000693308 347.00201693251574V452.99799765558384C508.50000693308 458.9657319019263 505.3161016920643 464.48077028241596 500.1476846848751 467.4650550216995L408.3523222482048 520.4630453832335C403.1839052410157 523.4464948902923 396.8160947589843 523.4464948902923 391.6476777517952 520.4622101510088L299.8523153151248 467.46421978947467C294.6838983079357 464.48077028241596 291.49999306692 458.9657319019263 291.49999306692 452.99799765558384V347.00201693251574C291.49999306692 341.03428268617336 294.6838983079357 335.51924430568374 299.8523153151248 332.5349595664002L391.6476777517952 279.53696920486607Z " transform="rotate(7, 400, 400)" opacity="0.85"></path><path d="M392.8408666443959 296.7459703344304C397.2709383648437 294.1887278998086 402.7290616351563 294.1887278998086 407.1591333556041 296.746686247766L485.84087258703585 342.1735351290809C490.27094430748366 344.7307775637027 493.00000594264 349.4579533184081 493.00000594264 354.57315410098727V445.4268518636171C493.00000594264 450.54205264619634 490.27094430748366 455.26922840090174 485.84087258703585 457.82718674885905L407.1591333556041 503.254035630174C402.7290616351563 505.8112780647958 397.2709383648437 505.8112780647958 392.8408666443959 503.2533197168384L314.15912741296415 457.82647083552354C309.72905569251634 455.26922840090174 306.99999405736 450.54205264619634 306.99999405736 445.4268518636171V354.57315410098727C306.99999405736 349.4579533184081 309.72905569251634 344.7307775637027 314.15912741296415 342.17281921574533L392.8408666443959 296.7459703344304Z " transform="rotate(6, 400, 400)" opacity="0.88"></path><path d="M394.03405553699656 313.95497146399475C397.7257819707031 311.8239361018099 402.2742180292969 311.8239361018099 405.96594446300344 313.95556805844103L471.5340604891966 351.81127545953683C475.22578692290307 353.94231082172166 477.5000049522 357.88162395064285 477.5000049522 362.1442912694588V437.85570607165033C477.5000049522 442.11837339046633 475.22578692290307 446.0576865193875 471.5340604891966 448.1893184760186L405.96594446300344 486.04502587711437C402.2742180292969 488.1760612392992 397.7257819707031 488.1760612392992 394.03405553699656 486.0444292826681L328.4659395108035 448.1887218815723C324.77421307709693 446.0576865193875 322.4999950478 442.11837339046633 322.4999950478 437.85570607165033V362.1442912694588C322.4999950478 357.88162395064285 324.77421307709693 353.94231082172166 328.4659395108035 351.8106788650905L394.03405553699656 313.95497146399475Z " transform="rotate(5, 400, 400)" opacity="0.90"></path><path d="M395.22724442959725 331.16397259355904C398.1806255765625 329.4591443038112 401.8193744234375 329.4591443038112 404.77275557040275 331.1644498691161L457.2272483913572 361.4490157899927C460.1806295383225 363.15384407974057 462.00000396176 366.30529458287754 462.00000396176 369.7154284379303V430.28456027968355C462.00000396176 433.6946941347363 460.1806295383225 436.8461446378733 457.2272483913572 438.5514502031782L404.77275557040275 468.8360161240548C401.8193744234375 470.5408444138027 398.1806255765625 470.5408444138027 395.22724442959725 468.8355388484978L342.77275160864275 438.55097292762116C339.8193704616775 436.8461446378733 337.99999603824 433.6946941347363 337.99999603824 430.28456027968355V369.7154284379303C337.99999603824 366.30529458287754 339.8193704616775 363.15384407974057 342.77275160864275 361.4485385144357L395.22724442959725 331.16397259355904Z " transform="rotate(4, 400, 400)" opacity="0.93"></path><path d="M396.42043332219794 348.3729889819125C398.63546918242184 347.09436776460154 401.36453081757816 347.09436776460154 403.57956667780206 348.37334693858026L442.9204362935179 371.0867713792377C445.13547215374183 372.3653925965486 446.50000297132 374.72898047390134 446.50000297132 377.2865808651909V422.7134297465058C446.50000297132 425.27103013779544 445.13547215374183 427.63461801514813 442.9204362935179 428.9135971891268L403.57956667780206 451.6270216297843C401.36453081757816 452.9056428470951 398.63546918242184 452.9056428470951 396.42043332219794 451.62666367311647L357.0795637064821 428.91323923245903C354.86452784625817 427.63461801514813 353.49999702868 425.27103013779544 353.49999702868 422.7134297465058V377.2865808651909C353.49999702868 374.72898047390134 354.86452784625817 372.3653925965486 357.0795637064821 371.08641342256993L396.42043332219794 348.3729889819125Z " transform="rotate(3, 400, 400)" opacity="0.95"></path><path d="M397.6136222147986 365.5819901114768C399.0903127882812 364.72957596660285 400.9096872117188 364.72957596660285 402.3863777852014 365.58222874925536L428.6136241956786 380.7245117096936C430.09031476916124 381.57692585456755 431.00000198088 383.15265110613603 431.00000198088 384.8577180336624V415.14228395453904C431.00000198088 416.8473508820654 430.09031476916124 418.4230761336339 428.6136241956786 419.27572891628637L402.3863777852014 434.4180118767247C400.9096872117188 435.2704260215986 399.0903127882812 435.2704260215986 397.6136222147986 434.41777323894615L371.3863758043214 419.27549027850785C369.90968523083876 418.4230761336339 368.99999801912 416.8473508820654 368.99999801912 415.14228395453904V384.8577180336624C368.99999801912 383.15265110613603 369.90968523083876 381.57692585456755 371.3863758043214 380.7242730719151L397.6136222147986 365.5819901114768Z " transform="rotate(2, 400, 400)" opacity="0.98"></path><path d="M398.8068111073993 382.7909912410411C399.54515639414063 382.36478416860416 400.45484360585937 382.36478416860416 401.1931888926007 382.7911105599304L414.3068120978393 390.36225204014954C415.0451573845806 390.7884591125865 415.50000099044 391.5763217383708 415.50000099044 392.42885520213395V407.57113816257225C415.50000099044 408.4236716263355 415.0451573845806 409.2115342521197 414.3068120978393 409.6378606434459L401.1931888926007 417.2090021236651C400.45484360585937 417.63520919610204 399.54515639414063 417.63520919610204 398.8068111073993 417.20888280477584L385.6931879021607 409.63774132455666C384.9548426154194 409.2115342521197 384.49999900956 408.4236716263355 384.49999900956 407.57113816257225V392.42885520213395C384.49999900956 391.5763217383708 384.9548426154194 390.7884591125865 385.6931879021607 390.3621327212603L398.8068111073993 382.7909912410411Z " transform="rotate(1, 400, 400)" opacity="1.00"></path></g></svg>