<svg id="visual" viewBox="0 0 960 540" width="960" height="540" xmlns="http://www.w3.org/2000/svg" xmlns:xlink="http://www.w3.org/1999/xlink" version="1.1"><rect x="0" y="0" width="960" height="540" fill="#ffffff"></rect><g transform="translate(460.26804146026495 288.47920702350115)"><path d="M73.5 -107.6C113.6 -88.7 176.9 -99.2 192.9 -82.6C208.9 -66.1 177.7 -22.5 148.6 5.3C119.6 33 92.7 45 72.5 55.9C52.3 66.8 38.8 76.6 17.3 103C-4.2 129.5 -33.8 172.7 -63 179.9C-92.1 187.1 -120.9 158.4 -139 126.5C-157.2 94.7 -164.7 59.7 -150 33.4C-135.3 7.2 -98.3 -10.4 -94 -52.4C-89.6 -94.4 -117.8 -160.8 -107.6 -193.3C-97.3 -225.8 -48.7 -224.4 -15.9 -199.6C16.8 -174.7 33.5 -126.5 73.5 -107.6" fill="#e8e8e8"></path></g></svg>